# xmcd CD database file
#
# Track frame offsets:
#	150
#	18544
#	32611
#	69862
#	114257
#	154113
#	161569
#	174715
#	192820
#	205089
#	214456
#	226863
#	257612
#
# Disc length: 4305 seconds
#
# Revision: 1
# Processed by: cddbd v1.5.2PL0 Copyright (c) Steve Scherf et al.
# Submitted via: CDex 1.51
#
DISCID=a610cf0d
DTITLE=Liszt - L'Oeuvre pour Piano - France Clidat  [CD 03-14]
DYEAR=1970
DGENRE=Piano
TTITLE0=Supplément à 2ème année de pèlerinage - Italie, S.161 ~ Venezia e Napoli, S.162 - Gondoliera  [rec. 1968]
TTITLE1=Supplément à 2ème année de pèlerinage - Italie, S.161 ~ Venezia e Napoli, S.162 - Canzone
TTITLE2=Supplément à 2ème année de pèlerinage - Italie, S.161 ~ Venezia e Napoli, S.162 - Tarentella
TTITLE3=Deux légendes, S.175 - N°1 - Saint François d'Assise  (La prédication aux oiseaux)
TTITLE4=Deux légendes, S.175 - N°2 - Saint François de Paule marchant sur les flots
TTITLE5=Six Consolations, S.172 - N°1 - Andante con moto       [rec. 1970]
TTITLE6=Six Consolations, S.172 - N°2 - Un poco più mosso
TTITLE7=Six Consolations, S.172 - N°3 - Lento placido
TTITLE8=Six Consolations, S.172 - N°4 - Quasi Adagio
TTITLE9=Six Consolations, S.172 - N°5 - Andantino
TTITLE10=Six Consolations, S.172 - N°6 - Allegretto sempre cantabile
TTITLE11=Ballade N°1 en ré bémol majeur, S170
TTITLE12=Ballade N°2 en si mineur, S.171
EXTD=YEAR: 1970
EXTT0=
EXTT1=
EXTT2=
EXTT3=
EXTT4=
EXTT5=
EXTT6=
EXTT7=
EXTT8=
EXTT9=
EXTT10=
EXTT11=
EXTT12=
PLAYORDER=
